<svg xmlns:xlink="http://www.w3.org/1999/xlink" width="624" height="442" viewBox="0 0 624 442" fill="none" xmlns="http://www.w3.org/2000/svg">
<rect width="624" height="442" fill=""></rect>
<rect x="54" y="369" width="296" height="198" rx="5" transform="rotate(-90 54 369)" stroke="#007AFF" stroke-width="2px" fill="none"></rect>
<circle cx="217" cy="116" r="11" fill="#007AFF"></circle>
<circle cx="164" cy="172" r="11" fill="#007AFF"></circle>
<circle cx="76" cy="177" r="11" fill="#007AFF"></circle>
<circle cx="158" cy="289" r="11" fill="#007AFF"></circle>
<circle cx="98" cy="332" r="11" fill="#007AFF"></circle>
<circle cx="217" cy="221" r="11" fill="#007AFF"></circle>
<circle cx="221" cy="337" r="11" fill="#007AFF"></circle>
<circle cx="109" cy="243" r="11" fill="#007AFF"></circle>
<circle cx="120" cy="110" r="11" fill="#007AFF"></circle>
<path d="M423 302.5C423.828 302.5 424.5 301.828 424.5 301C424.5 300.172 423.828 299.5 423 299.5V302.5ZM292.939 299.939C292.354 300.525 292.354 301.475 292.939 302.061L302.485 311.607C303.071 312.192 304.021 312.192 304.607 311.607C305.192 311.021 305.192 310.071 304.607 309.485L296.121 301L304.607 292.515C305.192 291.929 305.192 290.979 304.607 290.393C304.021 289.808 303.071 289.808 302.485 290.393L292.939 299.939ZM423 299.5H294V302.5H423V299.5Z" fill="#007AFF"></path>
<path d="M423 217.5C423.828 217.5 424.5 216.828 424.5 216C424.5 215.172 423.828 214.5 423 214.5V217.5ZM292.939 214.939C292.354 215.525 292.354 216.475 292.939 217.061L302.485 226.607C303.071 227.192 304.021 227.192 304.607 226.607C305.192 226.021 305.192 225.071 304.607 224.485L296.121 216L304.607 207.515C305.192 206.929 305.192 205.979 304.607 205.393C304.021 204.808 303.071 204.808 302.485 205.393L292.939 214.939ZM423 214.5L294 214.5V217.5L423 217.5V214.5Z" fill="#007AFF"></path>
<path d="M423 131.5C423.828 131.5 424.5 130.828 424.5 130C424.5 129.172 423.828 128.5 423 128.5V131.5ZM292.939 128.939C292.354 129.525 292.354 130.475 292.939 131.061L302.485 140.607C303.071 141.192 304.021 141.192 304.607 140.607C305.192 140.021 305.192 139.071 304.607 138.485L296.121 130L304.607 121.515C305.192 120.929 305.192 119.979 304.607 119.393C304.021 118.808 303.071 118.808 302.485 119.393L292.939 128.939ZM423 128.5L294 128.5V131.5L423 131.5V128.5Z" fill="#007AFF"></path>
<circle cx="513" cy="127" r="33" fill="#007AFF" stroke="#007AFF" stroke-width="2px"></circle>
<circle cx="513" cy="219" r="34" fill="#007AFF"></circle>
<circle cx="513" cy="315" r="33" fill="#007AFF" stroke="#007AFF" stroke-width="2px"></circle>
</svg>